<?xml version="1.0" encoding="UTF-8" standalone="no"?>
<!-- Generator: Adobe Illustrator 27.5.0, SVG Export Plug-In . SVG Version: 6.00 Build 0)  -->

<svg
   version="1.1"
   x="0px"
   y="0px"
   viewBox="0 0 128 90"
   xml:space="preserve"
   id="svg76"
   sodipodi:docname="logo-2.svg"
   width="128"
   height="90"
   inkscape:version="1.4.2 (f4327f4, 2025-05-13)"
   xmlns:inkscape="http://www.inkscape.org/namespaces/inkscape"
   xmlns:sodipodi="http://sodipodi.sourceforge.net/DTD/sodipodi-0.dtd"
   xmlns="http://www.w3.org/2000/svg"
   xmlns:svg="http://www.w3.org/2000/svg"><defs
   id="defs76" /><sodipodi:namedview
   id="namedview76"
   pagecolor="#ffffff"
   bordercolor="#000000"
   borderopacity="0.25"
   inkscape:showpageshadow="2"
   inkscape:pageopacity="0.0"
   inkscape:pagecheckerboard="0"
   inkscape:deskcolor="#d1d1d1"
   inkscape:zoom="3.774"
   inkscape:cx="250"
   inkscape:cy="122.81399"
   inkscape:window-width="3840"
   inkscape:window-height="2089"
   inkscape:window-x="-8"
   inkscape:window-y="-8"
   inkscape:window-maximized="1"
   inkscape:current-layer="svg76" />

<g
   id="OBJECTS"
   transform="matrix(0.9988295,0,0,1.0875344,-72.252166,-73.77)">
	
	
	<g
   id="g52">
		
			<linearGradient
   id="SVGID_00000147218586303552598440000013887037271357816725_"
   gradientUnits="userSpaceOnUse"
   x1="75.104401"
   y1="109.2077"
   x2="141.44659"
   y2="109.2077">
			<stop
   offset="0"
   style="stop-color:#F66A03"
   id="stop39" />
			<stop
   offset="0.2508"
   style="stop-color:#F66703"
   id="stop40" />
			<stop
   offset="0.4398"
   style="stop-color:#F65D03"
   id="stop41" />
			<stop
   offset="0.6086"
   style="stop-color:#F64D03"
   id="stop42" />
			<stop
   offset="0.7655"
   style="stop-color:#F63603"
   id="stop43" />
			<stop
   offset="0.9129"
   style="stop-color:#F61903"
   id="stop44" />
			<stop
   offset="1"
   style="stop-color:#F60403"
   id="stop45" />
		</linearGradient>
		<polygon
   style="fill:url(#SVGID_00000147218586303552598440000013887037271357816725_)"
   points="141.963,137.242 72.513,150.586 72.513,67.83 141.963,81.174 "
   id="polygon45" />
		
			<linearGradient
   id="SVGID_00000106845597368691820030000013137495378499923891_"
   gradientUnits="userSpaceOnUse"
   x1="107.5146"
   y1="109.2077"
   x2="218.63699"
   y2="109.2077">
			<stop
   offset="0.0872"
   style="stop-color:#121211"
   id="stop46" />
			<stop
   offset="0.8635"
   style="stop-color:#3D3D3D"
   id="stop47" />
		</linearGradient>
		<polygon
   style="fill:url(#SVGID_00000106845597368691820030000013137495378499923891_)"
   points="131.214,133.567 200.663,150.586 200.663,67.83 131.214,84.848 "
   id="polygon47" />
		<g
   id="g51">
			
				<linearGradient
   id="SVGID_00000045598091705785785780000007608671182335465904_"
   gradientUnits="userSpaceOnUse"
   x1="137.3495"
   y1="128.42439"
   x2="137.3495"
   y2="94.9384">
				<stop
   offset="0.2308"
   style="stop-color:#B5B5B5"
   id="stop48" />
				<stop
   offset="0.6632"
   style="stop-color:#FFFFFF"
   id="stop49" />
			</linearGradient>
			<path
   style="fill:url(#SVGID_00000045598091705785785780000007608671182335465904_)"
   d="m 108.964,114.68 c 1.878,6.221 2.529,11.168 1.424,11.543 -1.259,0.427 -4.319,-5.24 -6.835,-12.658 -2.516,-7.418 -3.535,-13.777 -2.277,-14.204 1.079,-0.366 3.482,3.752 5.731,9.607 0.294,-0.18 0.62,-0.374 0.972,-0.578 -3.163,-8.032 -7.085,-13.591 -9.28,-12.847 l -5.707,1.936 c -2.483,0.842 -1.817,9.422 1.487,19.164 3.304,9.742 7.996,16.956 10.479,16.114 l 5.707,-1.936 c 2.274,-0.771 1.9,-8.038 -0.716,-16.739 -0.372,0.219 -0.703,0.421 -0.985,0.598 z m -7.525,1.805 c -0.197,-0.654 -0.408,-1.317 -0.635,-1.987 -0.228,-0.671 -0.463,-1.325 -0.705,-1.964 -2.268,-7.503 -2.645,-13.954 -0.939,-15.715 -0.848,3.156 0.089,9.919 2.609,17.351 2.521,7.432 5.892,13.369 8.485,15.358 -2.425,-0.359 -6.05,-5.709 -8.815,-13.043 z m -10.804,-14.865 -3.891,1.32 c -2.061,0.699 -1.509,7.821 1.234,15.907 2.743,8.086 6.637,14.075 8.699,13.376 l 3.89,-1.32 c -2.274,-2.761 -4.886,-7.868 -6.954,-13.967 -2.068,-6.098 -3.103,-11.741 -2.978,-15.316 z m -5.225,11.115 -1.53,0.519 c -0.955,0.324 -0.699,3.623 0.572,7.368 1.271,3.745 3.074,6.519 4.029,6.196 l 1.668,-0.566 c -1.046,-2.043 -2.074,-4.469 -2.977,-7.131 -0.761,-2.244 -1.347,-4.407 -1.762,-6.386 z m 20.611,-1.629 c -0.16,0.112 -0.24,0.299 -0.218,0.493 0.105,0.911 0.439,1.782 0.971,2.529 0.132,0.185 0.381,0.234 0.569,0.107 1.58,-1.071 8.704,-5.605 18.919,-7.797 l 0.897,-3.637 c -11.807,2.108 -19.618,7.241 -21.138,8.305 z m 81.933,-8.166 -3.891,-1.32 c 0.125,3.575 -0.909,9.217 -2.978,15.316 -2.069,6.099 -4.681,11.206 -6.955,13.967 l 3.89,1.32 c 2.061,0.699 5.956,-5.289 8.699,-13.376 2.744,-8.086 3.296,-15.208 1.235,-15.907 z m 2.865,10.314 -1.53,-0.519 c -0.415,1.979 -1.001,4.142 -1.762,6.386 -0.903,2.662 -1.931,5.088 -2.977,7.131 l 1.668,0.566 c 0.955,0.324 2.758,-2.45 4.029,-6.196 1.271,-3.745 1.527,-7.044 0.572,-7.368 z m -37.491,-20.772 -10.613,2.893 6.411,-21.293 -15.299,6.614 -6.668,27.034 8.518,-2.322 -6.543,32.76 z m 14.597,21.647 c 0.532,-0.748 0.866,-1.618 0.971,-2.529 0.022,-0.194 -0.058,-0.382 -0.218,-0.493 -1.452,-1.016 -8.641,-5.745 -19.57,-8.003 l -1.66,3.136 c 10.742,2.101 18.278,6.893 19.909,7.997 0.187,0.126 0.437,0.077 0.568,-0.108 z m 13.783,-16.65 -5.707,-1.936 c -2.196,-0.745 -6.117,4.815 -9.28,12.847 0.352,0.204 0.678,0.398 0.972,0.578 2.249,-5.855 4.652,-9.973 5.731,-9.607 1.259,0.427 0.239,6.786 -2.277,14.204 -2.516,7.418 -5.576,13.085 -6.835,12.658 -1.105,-0.375 -0.454,-5.322 1.424,-11.543 -0.283,-0.178 -0.613,-0.379 -0.984,-0.598 -2.616,8.7 -2.991,15.967 -0.716,16.739 l 5.707,1.936 c 2.483,0.842 7.175,-6.372 10.479,-16.114 3.303,-9.742 3.969,-18.322 1.486,-19.164 z m -7.108,15.055 c -0.242,0.639 -0.478,1.293 -0.705,1.964 -0.227,0.671 -0.438,1.334 -0.635,1.987 -2.765,7.334 -6.39,12.684 -8.816,13.043 2.593,-1.989 5.964,-7.926 8.485,-15.358 2.521,-7.432 3.457,-14.195 2.609,-17.351 1.707,1.76 1.33,8.212 -0.938,15.715 z"
   id="path49" />
			
				<linearGradient
   id="SVGID_00000087376801772337728510000003753936257122200208_"
   gradientUnits="userSpaceOnUse"
   x1="137.6869"
   y1="97.306801"
   x2="137.6869"
   y2="160.30881">
				<stop
   offset="0.2308"
   style="stop-color:#B5B5B5"
   id="stop50" />
				<stop
   offset="1"
   style="stop-color:#FFFFFF"
   id="stop51" />
			</linearGradient>
			<path
   style="fill:url(#SVGID_00000087376801772337728510000003753936257122200208_)"
   d="m 190.819,113.254 -1.53,-0.519 c -0.415,1.979 -1.001,4.142 -1.762,6.386 -0.903,2.662 -1.931,5.088 -2.977,7.131 l 1.668,0.566 c 0.955,0.324 2.758,-2.45 4.029,-6.196 1.271,-3.745 1.527,-7.044 0.572,-7.368 z m -81.855,1.426 c 1.878,6.221 2.529,11.168 1.424,11.543 -1.259,0.427 -4.319,-5.24 -6.835,-12.658 -0.05,-0.149 -0.096,-0.294 -0.145,-0.441 -0.611,0.156 -1.218,0.315 -1.824,0.475 0.063,0.19 0.122,0.379 0.187,0.57 2.521,7.432 5.892,13.369 8.485,15.358 -2.426,-0.359 -6.051,-5.709 -8.816,-13.043 -0.197,-0.654 -0.408,-1.317 -0.635,-1.987 -0.074,-0.217 -0.153,-0.421 -0.228,-0.634 -2.165,0.583 -4.3,1.194 -6.407,1.832 0.103,0.316 0.2,0.63 0.308,0.948 3.304,9.742 7.996,16.956 10.479,16.114 l 5.707,-1.936 c 2.274,-0.771 1.9,-8.038 -0.716,-16.739 -0.371,0.219 -0.702,0.421 -0.984,0.598 z m 59.787,-8.31 c -0.389,-0.019 -0.777,-0.041 -1.167,-0.058 -0.292,0.674 -0.581,1.361 -0.863,2.077 0.352,0.204 0.678,0.398 0.972,0.578 0.351,-0.913 0.705,-1.778 1.058,-2.597 z m -62.761,6.115 c 0.169,0.586 0.428,1.144 0.784,1.644 0.132,0.185 0.381,0.234 0.569,0.107 0.783,-0.53 2.93,-1.911 6.135,-3.436 -1.078,0.223 -2.157,0.454 -3.236,0.693 -1.429,0.317 -2.844,0.651 -4.252,0.992 z m -19.158,5.583 c -0.958,0.329 -1.91,0.664 -2.854,1.005 0.138,0.503 0.295,1.021 0.474,1.549 1.271,3.745 3.074,6.519 4.029,6.196 l 1.668,-0.566 c -1.046,-2.043 -2.074,-4.469 -2.977,-7.131 -0.12,-0.354 -0.229,-0.703 -0.34,-1.053 z m 6.469,-2.104 c -1.913,0.588 -3.802,1.197 -5.665,1.829 0.112,0.351 0.222,0.7 0.343,1.055 2.743,8.086 6.637,14.075 8.699,13.376 l 3.89,-1.32 c -2.274,-2.761 -4.886,-7.868 -6.954,-13.967 -0.112,-0.329 -0.208,-0.649 -0.313,-0.973 z m 89.322,-8.441 c -2.184,-0.261 -4.393,-0.486 -6.623,-0.674 -0.332,1.777 -0.797,3.691 -1.399,5.685 -0.242,0.639 -0.478,1.293 -0.705,1.964 -0.227,0.671 -0.438,1.334 -0.635,1.987 -2.765,7.334 -6.39,12.684 -8.816,13.043 2.593,-1.989 5.964,-7.926 8.485,-15.358 0.879,-2.592 1.561,-5.098 2.046,-7.403 -0.609,-0.048 -1.218,-0.097 -1.831,-0.14 -0.478,2.071 -1.15,4.441 -1.997,6.938 -2.516,7.418 -5.576,13.085 -6.835,12.658 -1.105,-0.375 -0.454,-5.322 1.424,-11.543 -0.283,-0.178 -0.613,-0.379 -0.984,-0.598 -2.616,8.7 -2.991,15.967 -0.716,16.739 l 5.707,1.936 c 2.483,0.842 7.175,-6.372 10.479,-16.114 1.102,-3.254 1.904,-6.37 2.4,-9.12 z m 6.486,0.896 c -1.845,-0.288 -3.71,-0.549 -5.593,-0.783 -0.493,2.795 -1.301,5.972 -2.43,9.301 -2.069,6.099 -4.681,11.206 -6.955,13.967 l 3.89,1.32 c 2.061,0.699 5.956,-5.289 8.699,-13.376 1.326,-3.91 2.135,-7.587 2.389,-10.429 z m -21.184,5.71 c 0.532,-0.748 0.866,-1.618 0.971,-2.529 0.022,-0.194 -0.058,-0.382 -0.218,-0.493 -0.942,-0.659 -4.311,-2.88 -9.537,-4.976 -3.629,-0.007 -7.297,0.077 -10.998,0.258 10.366,2.168 17.618,6.768 19.213,7.848 0.188,0.126 0.438,0.077 0.569,-0.108 z m -38.791,24.039 16.767,-31.661 c -3.516,0.207 -7.059,0.504 -10.62,0.885 z"
   id="path51" />
		</g>
	</g>
	
</g>

</svg>
